<svg width="165" height="39" viewBox="0 0 165 39" fill="none" xmlns="http://www.w3.org/2000/svg">
<ellipse cx="12.2507" cy="13.8814" rx="12.2507" ry="12.8814" fill="#7468F8"/>
<ellipse cx="34.3021" cy="20.322" rx="6.12537" ry="6.44068" fill="#7468F8"/>
<line x1="3.06268" y1="36.5" x2="41.04" y2="36.5" stroke="#7468F8" stroke-width="5"/>
<path d="M55.852 15.728C56.356 15.0187 57.0467 14.4307 57.924 13.964C58.82 13.4787 59.8373 13.236 60.976 13.236C62.3013 13.236 63.496 13.5627 64.56 14.216C65.6427 14.8693 66.492 15.8027 67.108 17.016C67.7427 18.2107 68.06 19.6013 68.06 21.188C68.06 22.7747 67.7427 24.184 67.108 25.416C66.492 26.6293 65.6427 27.572 64.56 28.244C63.496 28.916 62.3013 29.252 60.976 29.252C59.8373 29.252 58.8293 29.0187 57.952 28.552C57.0933 28.0853 56.3933 27.4973 55.852 26.788V36.392H51.932V13.488H55.852V15.728ZM64.056 21.188C64.056 20.2547 63.86 19.452 63.468 18.78C63.0947 18.0893 62.5907 17.5667 61.956 17.212C61.34 16.8573 60.668 16.68 59.94 16.68C59.2307 16.68 58.5587 16.8667 57.924 17.24C57.308 17.5947 56.804 18.1173 56.412 18.808C56.0387 19.4987 55.852 20.3107 55.852 21.244C55.852 22.1773 56.0387 22.9893 56.412 23.68C56.804 24.3707 57.308 24.9027 57.924 25.276C58.5587 25.6307 59.2307 25.808 59.94 25.808C60.668 25.808 61.34 25.6213 61.956 25.248C62.5907 24.8747 63.0947 24.3427 63.468 23.652C63.86 22.9613 64.056 22.14 64.056 21.188ZM77.7966 29.252C76.3032 29.252 74.9592 28.9253 73.7646 28.272C72.5699 27.6 71.6272 26.6573 70.9366 25.444C70.2646 24.2307 69.9286 22.8307 69.9286 21.244C69.9286 19.6573 70.2739 18.2573 70.9646 17.044C71.6739 15.8307 72.6352 14.8973 73.8486 14.244C75.0619 13.572 76.4152 13.236 77.9086 13.236C79.4019 13.236 80.7552 13.572 81.9686 14.244C83.1819 14.8973 84.1339 15.8307 84.8246 17.044C85.5339 18.2573 85.8886 19.6573 85.8886 21.244C85.8886 22.8307 85.5246 24.2307 84.7966 25.444C84.0872 26.6573 83.1166 27.6 81.8846 28.272C80.6712 28.9253 79.3086 29.252 77.7966 29.252ZM77.7966 25.836C78.5059 25.836 79.1686 25.668 79.7846 25.332C80.4192 24.9773 80.9232 24.4547 81.2966 23.764C81.6699 23.0733 81.8566 22.2333 81.8566 21.244C81.8566 19.7693 81.4646 18.64 80.6806 17.856C79.9152 17.0533 78.9726 16.652 77.8526 16.652C76.7326 16.652 75.7899 17.0533 75.0246 17.856C74.2779 18.64 73.9046 19.7693 73.9046 21.244C73.9046 22.7187 74.2686 23.8573 74.9966 24.66C75.7432 25.444 76.6766 25.836 77.7966 25.836ZM92.684 15.728C93.188 15.0187 93.8787 14.4307 94.756 13.964C95.652 13.4787 96.6694 13.236 97.808 13.236C99.1334 13.236 100.328 13.5627 101.392 14.216C102.475 14.8693 103.324 15.8027 103.94 17.016C104.575 18.2107 104.892 19.6013 104.892 21.188C104.892 22.7747 104.575 24.184 103.94 25.416C103.324 26.6293 102.475 27.572 101.392 28.244C100.328 28.916 99.1334 29.252 97.808 29.252C96.6694 29.252 95.6614 29.0187 94.784 28.552C93.9254 28.0853 93.2254 27.4973 92.684 26.788V36.392H88.764V13.488H92.684V15.728ZM100.888 21.188C100.888 20.2547 100.692 19.452 100.3 18.78C99.9267 18.0893 99.4227 17.5667 98.788 17.212C98.172 16.8573 97.5 16.68 96.772 16.68C96.0627 16.68 95.3907 16.8667 94.756 17.24C94.14 17.5947 93.636 18.1173 93.244 18.808C92.8707 19.4987 92.684 20.3107 92.684 21.244C92.684 22.1773 92.8707 22.9893 93.244 23.68C93.636 24.3707 94.14 24.9027 94.756 25.276C95.3907 25.6307 96.0627 25.808 96.772 25.808C97.5 25.808 98.172 25.6213 98.788 25.248C99.4227 24.8747 99.9267 24.3427 100.3 23.652C100.692 22.9613 100.888 22.14 100.888 21.188ZM111.661 15.728C112.165 15.0187 112.855 14.4307 113.733 13.964C114.629 13.4787 115.646 13.236 116.785 13.236C118.11 13.236 119.305 13.5627 120.369 14.216C121.451 14.8693 122.301 15.8027 122.917 17.016C123.551 18.2107 123.869 19.6013 123.869 21.188C123.869 22.7747 123.551 24.184 122.917 25.416C122.301 26.6293 121.451 27.572 120.369 28.244C119.305 28.916 118.11 29.252 116.785 29.252C115.646 29.252 114.638 29.0187 113.761 28.552C112.902 28.0853 112.202 27.4973 111.661 26.788V36.392H107.741V13.488H111.661V15.728ZM119.865 21.188C119.865 20.2547 119.669 19.452 119.277 18.78C118.903 18.0893 118.399 17.5667 117.765 17.212C117.149 16.8573 116.477 16.68 115.749 16.68C115.039 16.68 114.367 16.8667 113.733 17.24C113.117 17.5947 112.613 18.1173 112.221 18.808C111.847 19.4987 111.661 20.3107 111.661 21.244C111.661 22.1773 111.847 22.9893 112.221 23.68C112.613 24.3707 113.117 24.9027 113.733 25.276C114.367 25.6307 115.039 25.808 115.749 25.808C116.477 25.808 117.149 25.6213 117.765 25.248C118.399 24.8747 118.903 24.3427 119.277 23.652C119.669 22.9613 119.865 22.14 119.865 21.188ZM130.637 8.28V29H126.717V8.28H130.637ZM148.93 20.908C148.93 21.468 148.893 21.972 148.818 22.42H137.478C137.571 23.54 137.963 24.4173 138.654 25.052C139.345 25.6867 140.194 26.004 141.202 26.004C142.658 26.004 143.694 25.3787 144.31 24.128H148.538C148.09 25.6213 147.231 26.8533 145.962 27.824C144.693 28.776 143.134 29.252 141.286 29.252C139.793 29.252 138.449 28.9253 137.254 28.272C136.078 27.6 135.154 26.6573 134.482 25.444C133.829 24.2307 133.502 22.8307 133.502 21.244C133.502 19.6387 133.829 18.2293 134.482 17.016C135.135 15.8027 136.05 14.8693 137.226 14.216C138.402 13.5627 139.755 13.236 141.286 13.236C142.761 13.236 144.077 13.5533 145.234 14.188C146.41 14.8227 147.315 15.728 147.95 16.904C148.603 18.0613 148.93 19.396 148.93 20.908ZM144.87 19.788C144.851 18.78 144.487 17.9773 143.778 17.38C143.069 16.764 142.201 16.456 141.174 16.456C140.203 16.456 139.382 16.7547 138.71 17.352C138.057 17.9307 137.655 18.7427 137.506 19.788H144.87ZM160.359 29L157.167 24.184L154.339 29H150.139L155.207 21.216L150.083 13.488H154.507L157.671 18.276L160.527 13.488H164.727L159.631 21.216L164.783 29H160.359Z" fill="#7468F8"/>
</svg>
